<svg xmlns="http://www.w3.org/2000/svg" xmlns:xlink="http://www.w3.org/1999/xlink" width="29" height="40" viewBox="0 0 29 40">
    <defs>
        <path id="a" d="M28.432 20.963v19.481H0V1.482h28.432v19.481z"/>
    </defs>
    <g fill="none" fill-rule="evenodd">
        <path fill="#00B4E3" d="M20.44 31.209a.784.784 0 0 1-.79-.778v-.603c0-2.184-1.358-4.148-3.38-4.886a2.968 2.968 0 0 1-.24-.13.778.778 0 0 1-.378-.67.778.778 0 0 1 .391-.664c.92-.53 1.49-1.503 1.49-2.537 0-1.873-1.108-2.948-3.039-2.948-1.676 0-3.04 1.322-3.04 2.948 0 1.05.584 2.028 1.523 2.554.23.129.38.364.398.625a.776.776 0 0 1-.311.672c-.059.042-.21.142-.278.168-1.936.736-3.253 2.607-3.322 4.693h5.611c.436 0 .79.349.79.778 0 .43-.354.778-.79.778H8.671a.784.784 0 0 1-.79-.778v-.603a6.802 6.802 0 0 1 3.26-5.793 4.45 4.45 0 0 1-1.265-3.094c0-2.483 2.072-4.504 4.618-4.504 2.806 0 4.619 1.767 4.619 4.504 0 1.134-.447 2.22-1.214 3.04a6.803 6.803 0 0 1 3.33 5.847v.603c0 .43-.354.778-.79.778"/>
        <g transform="translate(0 -.926)">
            <mask id="b" fill="#fff">
                <use xlink:href="#a"/>
            </mask>
            <path fill="#00B4E3" d="M1.582 38.875l23.852.014c.769 0 1.42-.59 1.42-1.288V11.238c0-.626-.348-1.293-1.327-1.293l-1.904-.028a.784.784 0 0 1-.779-.775l-.023-5.78c0-.154-.035-.274-.087-.302-.08-.039-.403-.062-.978.308a.749.749 0 0 1-.195.092L5.913 8.363l12.618.016c.435 0 .789.348.787.777 0 .43-.353.778-.79.778L1.706 9.898l-.123 28.977zm23.85 1.57L.792 40.43H.787A.785.785 0 0 1 0 39.65L.058 9.133a.78.78 0 0 1 .536-.734.762.762 0 0 1 .172-.055L20.984 2.01c1.246-.767 2.097-.53 2.498-.318.583.31.917.918.917 1.668l.021 5.015 1.118.015c1.672 0 2.894 1.198 2.894 2.849V37.6c0 1.567-1.345 2.844-3 2.844z" mask="url(#b)"/>
        </g>
    </g>
</svg>
