<svg xmlns="http://www.w3.org/2000/svg" width="70" height="70" viewBox="0 0 70 70">
    <g fill="none" fill-rule="evenodd" stroke="#00BAE3" stroke-linecap="round" stroke-linejoin="round" stroke-width="1.7">
        <path d="M59.205 42C61.582 42 67 39.952 67 37.424V20.576C67 18.046 65.074 16 62.696 16H7.304C4.926 16 3 18.047 3 20.576v16.848C3 39.952 8.416 42 10.795 42"/>
        <path d="M5 40v20.64A4.331 4.331 0 0 0 9.354 65h51.292C63.05 65 65 62.945 65 60.496v-11.77M23 12V8.148C23 5.876 25.006 4 27.476 4h14.046C43.994 4 46 5.807 46 8.079v3.852M46 28L23 53M30 31.999A5 5 0 1 1 19.999 32 5 5 0 0 1 30 31.999z"/>
        <path d="M49 48.001A4.998 4.998 0 0 1 44 53a5 5 0 1 1 5-4.999z"/>
    </g>
</svg>
