<svg xmlns="http://www.w3.org/2000/svg" xmlns:xlink="http://www.w3.org/1999/xlink" width="40" height="37" viewBox="0 0 40 37">
    <defs>
        <path id="a" d="M.27.232h39.48V36.19H.27z"/>
    </defs>
    <g fill="none" fill-rule="evenodd">
        <path fill="#00B4E3" d="M39.058 36.769H.908A.907.907 0 0 1 0 35.864c0-.5.407-.905.909-.905h38.149c.502 0 .91.406.91.905 0 .5-.408.905-.91.905"/>
        <path fill="#00B4E3" d="M24.497 36.173a.907.907 0 0 1-.91-.905V15.89c0-.501.408-.904.91-.904.501 0 .909.403.909.904v19.378c0 .5-.408.905-.91.905M16.297 36.769a.907.907 0 0 1-.909-.905V16.008c0-.501.407-.905.91-.905.5 0 .908.404.908.905v19.856c0 .5-.407.905-.909.905"/>
        <g transform="translate(0 .578)">
            <mask id="b" fill="#fff">
                <use xlink:href="#a"/>
            </mask>
            <path fill="#00B4E3" d="M31.777 36.19a.907.907 0 0 1-.91-.904V15.298a.907.907 0 0 1 .91-.905h.003l4.693.018c-3.327-2.607-10.807-8.02-14.036-10.356-1.237-.896-2.004-1.451-2.464-1.788C17.647 4.017 8.469 10.92 3.858 14.42h20.639c.501 0 .909.405.909.905a.906.906 0 0 1-.91.905H1.18a.908.908 0 0 1-.86-.612.9.9 0 0 1 .302-1.008C3.778 12.17 19.267.53 19.424.414a.911.911 0 0 1 1.133.03c.165.135 1.307.958 2.949 2.147 16.267 11.771 16.261 12.014 16.243 12.737a.943.943 0 0 1-.42.753c-.149.098-.294.085-.502.149l-6.141-.024v19.08c0 .5-.408.904-.91.904" mask="url(#b)"/>
        </g>
        <path fill="#00B4E3" d="M8.287 36.769a.907.907 0 0 1-.91-.905V15.889c0-.5.408-.905.91-.905.501 0 .909.405.909.905v19.975c0 .5-.408.905-.91.905"/>
    </g>
</svg>
