<svg xmlns="http://www.w3.org/2000/svg" width="217" height="139" viewBox="0 0 217 139">
    <g fill="none" fill-rule="evenodd">
        <rect width="217" height="139" fill="#DDEBF3" rx="6"/>
        <rect width="40" height="6" x="14" y="92" fill="#FFF" rx="3"/>
        <rect width="89" height="6" x="14" y="116" fill="#FFF" rx="3"/>
        <rect width="40" height="6" x="111" y="92" fill="#FFF" rx="3"/>
        <rect width="40" height="6" x="63" y="92" fill="#FFF" rx="3"/>
        <rect width="40" height="6" x="160" y="92" fill="#FFF" rx="3"/>
        <rect width="35" height="25" x="14" y="50" fill="#FFF" rx="4"/>
        <g fill-rule="nonzero">
            <g fill="#4D4D4D">
                <path d="M89.224 17.48v7.04h-1.635v-4.8l-3.596 4.8h-1.307v-5.76c0-.833-.674-.822-.654-.8v-.48h2.288v4.8l3.596-4.8h1.308zM92.493 20.36h3.595v-.38c0-1.11-.969-1.858-1.961-1.86-.94.002-1.634.8-1.634 2.24zm1.634 4.16c-1.94.087-3.62-1.334-3.596-3.175v-.387c-.023-2.002.981-3.478 3.596-3.478 2.6 0 3.595 1.6 3.595 3.52h-5.23v1.28c.053.906.516 1.6 1.635 1.6 1.001 0 1.783-.375 2.288-.96h.98c-.653.887-2.19 1.687-3.268 1.6zM55.228 24.52h-1.961l-.981-1.92s-.654-1.28-.98-1.28h-.981v3.2H48.69v-5.76c.022-.424-.222-.749-.653-.8v-.48h2.288v2.88h.653c.348-.072.582-.363.743-.673 1.166-1.85 1.033-2.207 1.546-2.207H54.9v.48c-1.02 0-1.294 2.082-2.288 2.72.475.177.726.836 1.798 2.72 0 0 .304.64.817.64v.48zM58.497 18.12v-.64h-2.288v.48c.013 0 .666-.012.653.8v8.96h1.635v-3.84s.327.64 2.288.64c1.99 0 2.942-2.093 2.942-3.84 0-1.905-1.301-3.36-3.106-3.36-1.307 0-1.741.308-2.124.8zm3.269 3.649c0 .83-.628 1.92-1.539 1.951h-.126c-.816 0-1.507-.918-1.604-1.532V19.88c.066-.645.327-1.76 1.604-1.76 1.01 0 1.665.32 1.665 1.92v1.729zM33 20.68v.64c0 1.553 1.797 3.2 3.923 3.2 1.965 0 3.922-1.486 3.922-3.2v-.64c0-1.553-1.67-3.2-3.922-3.2-2.541 0-3.923 2.002-3.923 3.2zm5.884 1.28c0 1.025-.778 1.89-1.961 1.92-1.184-.03-1.962-.895-1.962-1.92v-2.24c0-.801.88-1.57 1.962-1.6 1.15.03 1.927.83 1.96 1.6v2.24zM73.86 17.48h-2.288v.48s.684-.01.654.8v5.76h1.634v-7.04zM66.996 17.48h-2.289v.48c.03 0 .652-.04.654.728v5.832h3.923c1.244-.036 1.961-.716 1.961-1.76v-.48c0-1.167-.592-1.915-1.961-1.92h-2.288v-2.88zm0 3.52h1.307c.52 0 1.308.364 1.308 1.44s-.658 1.27-1.308 1.28h-1.307V21zM47.383 17.48v1.28h-.654c0-.002.03-.64-.49-.64h-1.144v6.4H43.46v-6.4h-1.144c-.466 0-.49.64-.49.64h-.654v-1.28h6.21zM81.051 17.48v1.28h-.653c0-.002 0-.64-.52-.64h-1.115v6.4H77.13v-6.4H75.96c-.466 0-.466.64-.466.64h-.654v-1.28h6.21zM102.299 13h.327v16h-.327zM109.49 21.655c0-.574-.403-.892-1.07-.892h-.408v-.869h1.268l-.064-.385h-1.634V22.6h.764c.686 0 1.144-.314 1.144-.945zm-.435.013c0 .385-.256.56-.686.56h-.357v-1.093h.384c.43 0 .66.18.66.533zm1.024.932h.448l.352-.927h1.286l.371.958.426-.09-1.218-3.046h-.43L110.08 22.6zm1.441-2.612l.503 1.313h-1.006l.503-1.313zm4.771 2.612v-3.091h-.43v1.281h-1.597V19.51h-.43V22.6h.43v-1.425h1.597V22.6h.43zm3.485-.067l-1.469-1.573 1.392-1.451h-.55l-1.308 1.389v-1.39h-.43V22.6h.43v-1.568l1.46 1.6.475-.1z"/>
            </g>
            <path fill="#09B9E2" d="M21.5 14c-4.13 0-7.5 3.34-7.5 7.5 0 4.13 3.34 7.5 7.5 7.5 4.13 0 7.5-3.34 7.5-7.5S25.63 14 21.5 14zm-1.465 11.653a.638.638 0 0 1-.064.52c-.12.184-.301.276-.57.274a.735.735 0 0 1-.334-.09l-.361-.153c-1.507-.827-2.472-2.481-2.472-4.544v-.639c0-1.741.934-3.395 2.472-4.223l.331-.153a.794.794 0 0 1 .364-.092c.239 0 .42.092.54.276.09.153.12.306.094.52-.064.307-.335.43-.317.43-.892.398-1.465 1.348-1.57 2.359v2.696c.136 1.072.708 1.992 1.57 2.336.103.084.314.207.317.483zm6.73-3.819c.039 1.878-.901 3.537-2.448 4.367l-.364.154a.799.799 0 0 1-.363.092c-.243 0-.425-.092-.546-.292a.702.702 0 0 1-.102-.48c.072-.304.253-.426.318-.48.906-.377 1.482-1.33 1.591-2.343v-2.704c-.11-1.045-.685-1.966-1.59-2.366.025 0-.247-.123-.32-.43a.851.851 0 0 1 .103-.522.604.604 0 0 1 .535-.277c.132 0 .253.03.374.092l.334.154c1.546.83 2.486 2.489 2.478 4.235v.8z"/>
        </g>
    </g>
</svg>
